<svg width="18" height="18" viewBox="0 0 18 18" fill="none" xmlns="http://www.w3.org/2000/svg">
<path d="M9.00002 0.666672C4.40002 0.666672 0.666687 4.40001 0.666687 9.00001C0.666687 13.6 4.40002 17.3333 9.00002 17.3333C13.6 17.3333 17.3334 13.6 17.3334 9.00001C17.3334 4.40001 13.6 0.666672 9.00002 0.666672ZM6.74169 12.575L3.75002 9.58334C3.67287 9.50619 3.61167 9.41459 3.56991 9.31379C3.52816 9.21299 3.50667 9.10495 3.50667 8.99584C3.50667 8.88673 3.52816 8.77869 3.56991 8.67789C3.61167 8.57708 3.67287 8.48549 3.75002 8.40834C3.82717 8.33119 3.91876 8.26999 4.01957 8.22823C4.12037 8.18648 4.22841 8.16499 4.33752 8.16499C4.44663 8.16499 4.55467 8.18648 4.65547 8.22823C4.75628 8.26999 4.84787 8.33119 4.92502 8.40834L7.33335 10.8083L13.0667 5.07501C13.2225 4.91919 13.4338 4.83166 13.6542 4.83166C13.8745 4.83166 14.0859 4.91919 14.2417 5.07501C14.3975 5.23082 14.485 5.44215 14.485 5.66251C14.485 5.88286 14.3975 6.09419 14.2417 6.25001L7.91669 12.575C7.83959 12.6523 7.74802 12.7135 7.64721 12.7554C7.5464 12.7972 7.43833 12.8187 7.32919 12.8187C7.22005 12.8187 7.11198 12.7972 7.01117 12.7554C6.91036 12.7135 6.81878 12.6523 6.74169 12.575Z" fill="#5D76B9"/>
</svg>
