<svg width="160" height="160" viewBox="0 0 160 160" fill="none" xmlns="http://www.w3.org/2000/svg">
<path d="M35.2859 35.2861C37.8894 32.6826 42.1105 32.6826 44.714 35.2861L80 70.5721L115.286 35.2861C117.889 32.6826 122.111 32.6826 124.714 35.2861C127.318 37.8896 127.318 42.1107 124.714 44.7142L89.4281 80.0002L124.714 115.286C127.318 117.89 127.318 122.111 124.714 124.714C122.111 127.318 117.889 127.318 115.286 124.714L80 89.4282L44.714 124.714C42.1105 127.318 37.8894 127.318 35.2859 124.714C32.6825 122.111 32.6825 117.89 35.2859 115.286L70.5719 80.0002L35.2859 44.7142C32.6825 42.1107 32.6825 37.8896 35.2859 35.2861Z" fill="#FE0400"/>
</svg>
