<svg width="16" height="16" viewBox="0 0 16 16" fill="none" xmlns="http://www.w3.org/2000/svg">
<path d="M8.00004 6.66665C7.26366 6.66665 6.66671 7.2636 6.66671 7.99998C6.66671 8.73636 7.26366 9.33331 8.00004 9.33331C8.73642 9.33331 9.33337 8.73636 9.33337 7.99998C9.33337 7.2636 8.73642 6.66665 8.00004 6.66665Z" fill="white"/>
<path d="M12 6.66665C11.2637 6.66665 10.6667 7.2636 10.6667 7.99998C10.6667 8.73636 11.2637 9.33331 12 9.33331C12.7364 9.33331 13.3334 8.73636 13.3334 7.99998C13.3334 7.2636 12.7364 6.66665 12 6.66665Z" fill="white"/>
<path d="M4.00004 6.66665C3.26366 6.66665 2.66671 7.2636 2.66671 7.99998C2.66671 8.73636 3.26366 9.33331 4.00004 9.33331C4.73642 9.33331 5.33337 8.73636 5.33337 7.99998C5.33337 7.2636 4.73642 6.66665 4.00004 6.66665Z" fill="white"/>
</svg>
