<svg width="16" height="17" viewBox="0 0 16 17" fill="none" xmlns="http://www.w3.org/2000/svg">
<path d="M13.65 3.35001C12.8118 2.50428 11.7944 1.85762 10.6728 1.4578C9.55124 1.05798 8.35418 0.915201 7.17002 1.04001C3.50002 1.41001 0.480021 4.39001 0.0700215 8.06001C-0.479978 12.91 3.27002 17 8.00002 17C9.51013 17 10.9892 16.5715 12.2655 15.7643C13.5418 14.9572 14.5628 13.8044 15.21 12.44C15.53 11.77 15.05 11 14.31 11C13.94 11 13.59 11.2 13.43 11.53C12.8494 12.779 11.8564 13.79 10.6179 14.3928C9.3795 14.9957 7.97122 15.1536 6.63002 14.84C4.41002 14.35 2.62002 12.54 2.15002 10.32C1.95245 9.44227 1.95474 8.53135 2.15672 7.65461C2.35869 6.77787 2.75519 5.95776 3.31687 5.25493C3.87856 4.55211 4.59107 3.98454 5.40169 3.59423C6.21232 3.20392 7.10032 3.00084 8.00002 3.00001C9.66002 3.00001 11.14 3.69001 12.22 4.78001L10.71 6.29001C10.08 6.92001 10.52 8.00001 11.41 8.00001L15 8.00001C15.55 8.00001 16 7.55001 16 7.00001L16 3.41001C16 2.52001 14.92 2.07001 14.29 2.70001L13.65 3.35001Z" fill="white"/>
</svg>
