<svg width="18" height="18" viewBox="0 0 18 18" fill="none" xmlns="http://www.w3.org/2000/svg">
<path d="M7.2143 0.428589C9.01399 0.428589 10.74 1.14351 12.0125 2.41608C13.2851 3.68865 14 5.41462 14 7.2143C14 8.70145 13.5214 10.0764 12.7107 11.195L17.2579 15.7422C17.4545 15.9359 17.5687 16.198 17.5768 16.474C17.5849 16.7499 17.4862 17.0182 17.3013 17.2232C17.1163 17.4281 16.8594 17.5537 16.5842 17.5739C16.3089 17.5941 16.0364 17.5072 15.8236 17.3314L15.7422 17.2579L11.195 12.7107C10.038 13.5509 8.64422 14.0024 7.2143 14C5.41462 14 3.68865 13.2851 2.41608 12.0125C1.14351 10.74 0.428589 9.01399 0.428589 7.2143C0.428589 5.41462 1.14351 3.68865 2.41608 2.41608C3.68865 1.14351 5.41462 0.428589 7.2143 0.428589ZM7.2143 2.57145C5.98294 2.57145 4.80201 3.0606 3.93131 3.93131C3.0606 4.80201 2.57145 5.98294 2.57145 7.2143C2.57145 8.44567 3.0606 9.62659 3.93131 10.4973C4.80201 11.368 5.98294 11.8572 7.2143 11.8572C8.44567 11.8572 9.62659 11.368 10.4973 10.4973C11.368 9.62659 11.8572 8.44567 11.8572 7.2143C11.8572 5.98294 11.368 4.80201 10.4973 3.93131C9.62659 3.0606 8.44567 2.57145 7.2143 2.57145Z" fill="white"/>
</svg>
