<svg width="21" height="21" viewBox="0 0 21 21" fill="none" xmlns="http://www.w3.org/2000/svg">
<path d="M2.625 4.375C2.625 3.4085 3.4085 2.625 4.375 2.625H16.625C17.5915 2.625 18.375 3.4085 18.375 4.375V16.625C18.375 17.5915 17.5915 18.375 16.625 18.375H4.375C3.4085 18.375 2.625 17.5915 2.625 16.625V4.375ZM4.375 12.25V16.625H16.625V12.25H14.6307L13.9551 14.2767C13.836 14.634 13.5016 14.875 13.125 14.875H7.875C7.49837 14.875 7.164 14.634 7.0449 14.2767L6.36934 12.25H4.375ZM16.625 10.5V4.375H4.375V10.5H6.36934C7.12259 10.5 7.79133 10.982 8.02953 11.6966L8.50566 13.125H12.4943L12.9705 11.6966C13.2087 10.982 13.8774 10.5 14.6307 10.5H16.625Z" fill="white"/>
</svg>
