<svg width="20" height="14" viewBox="0 0 20 14" fill="none" xmlns="http://www.w3.org/2000/svg">
<path d="M19.1667 3.66665V12C19.1667 12.9166 18.4167 13.6666 17.5 13.6666H4.16671C3.70837 13.6666 3.33337 13.2916 3.33337 12.8333C3.33337 12.375 3.70837 12 4.16671 12H17.5V3.66665C17.5 3.20831 17.875 2.83331 18.3334 2.83331C18.7917 2.83331 19.1667 3.20831 19.1667 3.66665ZM3.33337 10.3333C1.95004 10.3333 0.833374 9.21665 0.833374 7.83331V2.83331C0.833374 1.44998 1.95004 0.333313 3.33337 0.333313H13.3334C14.7167 0.333313 15.8334 1.44998 15.8334 2.83331V8.66665C15.8334 9.58331 15.0834 10.3333 14.1667 10.3333H3.33337ZM5.83337 5.33331C5.83337 6.71665 6.95004 7.83331 8.33337 7.83331C9.71671 7.83331 10.8334 6.71665 10.8334 5.33331C10.8334 3.94998 9.71671 2.83331 8.33337 2.83331C6.95004 2.83331 5.83337 3.94998 5.83337 5.33331Z" fill="white"/>
</svg>
