<svg width="160" height="160" viewBox="0 0 160 160" fill="none" xmlns="http://www.w3.org/2000/svg">
<path d="M80 26.6668C50.5448 26.6668 26.6666 50.545 26.6666 80.0002C26.6666 109.455 50.5448 133.334 80 133.334C109.455 133.334 133.333 109.455 133.333 80.0002C133.333 50.545 109.455 26.6668 80 26.6668ZM13.3333 80.0002C13.3333 43.1812 43.181 13.3335 80 13.3335C116.819 13.3335 146.667 43.1812 146.667 80.0002C146.667 116.819 116.819 146.667 80 146.667C43.181 146.667 13.3333 116.819 13.3333 80.0002ZM80 40.0002C83.6819 40.0002 86.6666 42.9849 86.6666 46.6668V77.2387L104.714 95.2861C107.318 97.8896 107.318 102.111 104.714 104.714C102.111 107.318 97.8894 107.318 95.2859 104.714L75.2859 84.7142C74.0357 83.464 73.3333 81.7683 73.3333 80.0002V46.6668C73.3333 42.9849 76.3181 40.0002 80 40.0002Z" fill="#FE8B00"/>
</svg>
