<svg width="24" height="24" viewBox="0 0 24 24" fill="none" xmlns="http://www.w3.org/2000/svg">
<path d="M12 13.9999C11.4477 13.9999 11 13.5522 11 12.9999V9.99988C11 9.4476 11.4477 8.99988 12 8.99988C12.5523 8.99988 13 9.4476 13 9.99988V12.9999C13 13.5522 12.5523 13.9999 12 13.9999Z" fill="#FE8B00"/>
<path d="M10.5 16.4999C10.5 15.6715 11.1716 14.9999 12 14.9999C12.8284 14.9999 13.5 15.6715 13.5 16.4999C13.5 17.3283 12.8284 17.9999 12 17.9999C11.1716 17.9999 10.5 17.3283 10.5 16.4999Z" fill="#FE8B00"/>
<path d="M10.2301 3.21548C10.98 1.79081 13.02 1.7908 13.7698 3.21548L22.1135 19.0684C22.8144 20.4002 21.8486 21.9999 20.3436 21.9999H3.65635C2.15133 21.9999 1.18556 20.4002 1.88651 19.0684L10.2301 3.21548ZM20.3436 19.9999L12 4.14697L3.65635 19.9999L20.3436 19.9999Z" fill="#FE8B00"/>
</svg>
