<svg width="26" height="23" viewBox="0 0 26 23" fill="none"
    xmlns="http://www.w3.org/2000/svg">
    <path d="M2.96 23H23.04C25.0933 23 26.3733 20.7733 25.3467 19L15.3067 1.65333C14.28 -0.12 11.72 -0.12 10.6933 1.65333L0.653332 19C-0.373335 20.7733 0.906665 23 2.96 23ZM13 13.6667C12.2667 13.6667 11.6667 13.0667 11.6667 12.3333V9.66667C11.6667 8.93333 12.2667 8.33333 13 8.33333C13.7333 8.33333 14.3333 8.93333 14.3333 9.66667V12.3333C14.3333 13.0667 13.7333 13.6667 13 13.6667ZM14.3333 19H11.6667V16.3333H14.3333V19Z" fill="white"/>
</svg>
