<svg width="44" height="44" viewBox="0 0 44 44" fill="none" xmlns="http://www.w3.org/2000/svg">
<g clip-path="url(#clip0_325_421)">
<path d="M0 22C0 9.84974 9.84974 0 22 0C34.1503 0 44 9.84974 44 22C44 34.1503 34.1503 44 22 44C9.84974 44 0 34.1503 0 22Z" fill="white" fill-opacity="0.12"/>
<path fill-rule="evenodd" clip-rule="evenodd" d="M37.8101 23.1626L26.7369 20.2037L22.6515 23.3123L37.8101 23.1626Z" fill="#183368"/>
<path fill-rule="evenodd" clip-rule="evenodd" d="M17.8396 5.57336L8.82703 15.2769L17.1292 13.4002L17.8396 5.57336Z" fill="#183368"/>
<path fill-rule="evenodd" clip-rule="evenodd" d="M23.343 23.2851L26.7992 20.3035L14.7836 23.2851H23.343Z" fill="#00122F"/>
<path fill-rule="evenodd" clip-rule="evenodd" d="M26.7992 20.3034L15.0366 12.5508L14.7836 23.285L26.8236 20.3087L26.7992 20.3034Z" fill="#00122F"/>
<path fill-rule="evenodd" clip-rule="evenodd" d="M-0.362915 22.3905L15.0366 12.5508L14.7985 23.285L-0.362915 22.3905Z" fill="#183368"/>
<path fill-rule="evenodd" clip-rule="evenodd" d="M-0.362915 22.3793L7.34746 39.2226L14.805 23.2743L-0.362915 22.3793Z" fill="#00122F"/>
<path fill-rule="evenodd" clip-rule="evenodd" d="M13.0053 43.5337L7.34415 39.2226L14.7986 23.285L13.0053 43.5337Z" fill="#829BD0"/>
<path fill-rule="evenodd" clip-rule="evenodd" d="M-0.362898 22.3905L7.34416 39.2226L-3.65448 27.2268L-0.362898 22.3905Z" fill="#829BD0"/>
<path fill-rule="evenodd" clip-rule="evenodd" d="M-0.362915 22.3905L15.0366 12.5508L6.1799 16.4105L-0.362915 22.3905Z" fill="#4C7AD2"/>
<path fill-rule="evenodd" clip-rule="evenodd" d="M26.7992 20.3034L15.0366 12.5508L26.7992 17.3249V20.3034Z" fill="#274794"/>
<path fill-rule="evenodd" clip-rule="evenodd" d="M37.8604 23.1567L27.9068 23.2602L25.5358 27.213L37.8604 23.1567Z" fill="#4C7AD2"/>
<path fill-rule="evenodd" clip-rule="evenodd" d="M37.8101 23.1625L25.4436 27.213L34.8672 28.6737L37.8101 23.1625Z" fill="#829BD0"/>
<path fill-rule="evenodd" clip-rule="evenodd" d="M24.6006 29.0858L25.5358 27.213L34.8894 28.6736L24.6006 29.0858Z" fill="#183368"/>
<path fill-rule="evenodd" clip-rule="evenodd" d="M27.9766 23.2579L24.6003 29.0859L14.7986 23.285L27.9766 23.2579Z" fill="#829BD0"/>
<path fill-rule="evenodd" clip-rule="evenodd" d="M16.4357 31.3086L24.6047 29.0768L14.7986 23.2849L16.4357 31.3086Z" fill="#4C7AD2"/>
<path fill-rule="evenodd" clip-rule="evenodd" d="M16.4429 31.3086L14.3445 28.4016L14.7986 23.285L16.4429 31.3086Z" fill="#183368"/>
<path fill-rule="evenodd" clip-rule="evenodd" d="M16.4357 31.3086L24.6048 29.0768L18.9629 34.2633L16.4357 31.3086Z" fill="#183368"/>
<path fill-rule="evenodd" clip-rule="evenodd" d="M25.5682 20.2196L20.9921 17.9178L22.3517 20.4389L25.5682 20.2196Z" fill="white"/>
<path fill-rule="evenodd" clip-rule="evenodd" d="M28.5611 20.7031L26.7992 20.3034V17.325L28.5611 20.7031Z" fill="#00122F"/>
<path fill-rule="evenodd" clip-rule="evenodd" d="M15.7369 6.11548L7.22104 15.9568L13.8386 14.1313L15.0171 13.8762L15.7369 6.11548Z" fill="#00122F"/>
</g>
<defs>
<clipPath id="clip0_325_421">
<path d="M0 22C0 9.84974 9.84974 0 22 0C34.1503 0 44 9.84974 44 22C44 34.1503 34.1503 44 22 44C9.84974 44 0 34.1503 0 22Z" fill="white"/>
</clipPath>
</defs>
</svg>
