<svg width="180" height="180" viewBox="0 0 180 180" fill="none" xmlns="http://www.w3.org/2000/svg">
<g clip-path="url(#clip0_325_381)">
<path d="M0 90C0 40.2944 40.2944 0 90 0C139.706 0 180 40.2944 180 90C180 139.706 139.706 180 90 180C40.2944 180 0 139.706 0 90Z" fill="white" fill-opacity="0.1"/>
<path fill-rule="evenodd" clip-rule="evenodd" d="M154.678 94.7556L109.378 82.6512L92.665 95.3679L154.678 94.7556Z" fill="#183368"/>
<path fill-rule="evenodd" clip-rule="evenodd" d="M72.9802 22.7999L36.1105 62.4964L70.074 54.8187L72.9802 22.7999Z" fill="#183368"/>
<path fill-rule="evenodd" clip-rule="evenodd" d="M95.4942 95.257L109.633 83.0592L60.4784 95.257H95.4942Z" fill="#00122F"/>
<path fill-rule="evenodd" clip-rule="evenodd" d="M109.633 83.0593L61.5133 51.3441L60.4781 95.257L109.733 83.081L109.633 83.0593Z" fill="#00122F"/>
<path fill-rule="evenodd" clip-rule="evenodd" d="M-1.48474 91.5975L61.5134 51.3441L60.5393 95.257L-1.48474 91.5975Z" fill="#183368"/>
<path fill-rule="evenodd" clip-rule="evenodd" d="M-1.48462 91.5511L30.0578 160.456L60.5659 95.2125L-1.48462 91.5511Z" fill="#00122F"/>
<path fill-rule="evenodd" clip-rule="evenodd" d="M53.2036 178.092L30.0442 160.456L60.5397 95.2566L53.2036 178.092Z" fill="#829BD0"/>
<path fill-rule="evenodd" clip-rule="evenodd" d="M-1.48463 91.5972L30.0442 160.456L-14.9502 111.382L-1.48463 91.5972Z" fill="#829BD0"/>
<path fill-rule="evenodd" clip-rule="evenodd" d="M-1.48474 91.5974L61.5134 51.3441L25.2813 67.1337L-1.48474 91.5974Z" fill="#4C7AD2"/>
<path fill-rule="evenodd" clip-rule="evenodd" d="M109.633 83.0593L61.5133 51.3441L109.633 70.8744V83.0593Z" fill="#274794"/>
<path fill-rule="evenodd" clip-rule="evenodd" d="M154.884 94.7319L114.164 95.1552L104.464 111.326L154.884 94.7319Z" fill="#4C7AD2"/>
<path fill-rule="evenodd" clip-rule="evenodd" d="M154.678 94.7556L104.088 111.326L142.639 117.301L154.678 94.7556Z" fill="#829BD0"/>
<path fill-rule="evenodd" clip-rule="evenodd" d="M100.639 118.987L104.465 111.326L142.729 117.301L100.639 118.987Z" fill="#183368"/>
<path fill-rule="evenodd" clip-rule="evenodd" d="M114.45 95.146L100.638 118.988L60.5396 95.2569L114.45 95.146Z" fill="#829BD0"/>
<path fill-rule="evenodd" clip-rule="evenodd" d="M67.2368 128.081L100.656 118.95L60.5396 95.2563L67.2368 128.081Z" fill="#4C7AD2"/>
<path fill-rule="evenodd" clip-rule="evenodd" d="M67.2662 128.08L58.682 116.188L60.5395 95.2566L67.2662 128.08Z" fill="#183368"/>
<path fill-rule="evenodd" clip-rule="evenodd" d="M67.2367 128.08L100.656 118.95L77.5753 140.168L67.2367 128.08Z" fill="#183368"/>
<path fill-rule="evenodd" clip-rule="evenodd" d="M104.597 82.7166L85.877 73.3003L91.439 83.6138L104.597 82.7166Z" fill="white"/>
<path fill-rule="evenodd" clip-rule="evenodd" d="M116.841 84.6939L109.633 83.059V70.8744L116.841 84.6939Z" fill="#00122F"/>
<path fill-rule="evenodd" clip-rule="evenodd" d="M64.3782 25.0178L29.5405 65.2777L56.6125 57.81L61.4335 56.7663L64.3782 25.0178Z" fill="#00122F"/>
</g>
<defs>
<clipPath id="clip0_325_381">
<path d="M0 90C0 40.2944 40.2944 0 90 0C139.706 0 180 40.2944 180 90C180 139.706 139.706 180 90 180C40.2944 180 0 139.706 0 90Z" fill="white"/>
</clipPath>
</defs>
</svg>
